<svg width="209" height="209" viewBox="0 0 209 209" fill="none" xmlns="http://www.w3.org/2000/svg">
<mask id="mask0_136_778" style="mask-type:alpha" maskUnits="userSpaceOnUse" x="0" y="0" width="209" height="209">
<path d="M208.979 104.489C208.979 162.197 162.197 208.979 104.489 208.979C46.7814 208.979 0 162.197 0 104.489C0 46.7814 46.7814 0 104.489 0C162.197 0 208.979 46.7814 208.979 104.489Z" fill="url(#paint0_linear_136_778)"/>
</mask>
<g mask="url(#mask0_136_778)">
<g filter="url(#filter0_i_136_778)">
<path d="M208.979 104.489C208.979 162.197 162.197 208.979 104.489 208.979C46.7814 208.979 0 162.197 0 104.489C0 46.7814 46.7814 0 104.489 0C162.197 0 208.979 46.7814 208.979 104.489Z" fill="url(#paint1_linear_136_778)"/>
</g>
<path d="M188.512 104.706C188.512 151.276 150.978 189.029 104.676 189.029C58.3748 189.029 20.8401 151.276 20.8401 104.706C20.8401 58.1363 58.3748 20.3838 104.676 20.3838C150.978 20.3838 188.512 58.1363 188.512 104.706Z" fill="url(#paint2_linear_136_778)"/>
<g style="mix-blend-mode:overlay">
<path d="M105.808 99.68H138.96V139.04C134.181 142.539 129.082 145.077 123.664 146.656C118.288 148.235 112.656 149.024 106.768 149.024C99.0876 149.024 92.0903 147.829 85.7756 145.44C79.5036 143.008 74.1276 139.68 69.6476 135.456C65.1676 131.189 61.7116 126.155 59.2796 120.352C56.8476 114.507 55.6316 108.171 55.6316 101.344C55.6316 94.3893 56.7836 88.0107 59.0876 82.208C61.3916 76.3627 64.677 71.328 68.9436 67.104C73.253 62.88 78.437 59.5947 84.4956 57.248C90.597 54.9013 97.4023 53.728 104.912 53.728C108.794 53.728 112.442 54.048 115.856 54.688C119.269 55.328 122.405 56.2027 125.264 57.312C128.165 58.4213 130.81 59.744 133.2 61.28C135.589 62.816 137.722 64.48 139.6 66.272L133.328 75.808C132.346 77.3013 131.066 78.2187 129.488 78.56C127.952 78.9013 126.288 78.5173 124.496 77.408C122.789 76.384 121.168 75.5093 119.632 74.784C118.138 74.016 116.602 73.3973 115.024 72.928C113.445 72.4587 111.781 72.1173 110.032 71.904C108.282 71.6907 106.32 71.584 104.144 71.584C100.09 71.584 96.4423 72.3093 93.1996 73.76C89.957 75.168 87.1836 77.1733 84.8796 79.776C82.6183 82.3787 80.869 85.5147 79.6316 89.184C78.3943 92.8107 77.7756 96.864 77.7756 101.344C77.7756 106.293 78.4583 110.688 79.8236 114.528C81.189 118.368 83.109 121.611 85.5836 124.256C88.101 126.901 91.0876 128.928 94.5436 130.336C98.0423 131.701 101.904 132.384 106.128 132.384C108.73 132.384 111.077 132.128 113.168 131.616C115.301 131.104 117.37 130.421 119.376 129.568V115.424H110.16C108.794 115.424 107.728 115.061 106.96 114.336C106.192 113.611 105.808 112.693 105.808 111.584V99.68Z" fill="#BEB195"/>
</g>
<g style="mix-blend-mode:hue">
<path d="M19.3748 33.7328L106.872 100.177L105.105 208.215L85.7734 208.215L44.0032 193.371L12.5893 162.993L0.161766 127.437L-5.01636 100.177L-1.90948 77.7266L8.33782 56.6052L19.3748 33.7328Z" fill="white" fill-opacity="0.5"/>
</g>
<path d="M61.0766 62.0748C59.5381 60.9045 57.3422 61.2029 56.1719 62.7413C55.0016 64.2798 55.3 66.4757 56.8385 67.646L61.0766 62.0748ZM108.83 98.4012L61.0766 62.0748L56.8385 67.646L104.592 103.972L108.83 98.4012Z" fill="#787878"/>
<path d="M101.485 185.919C101.44 187.851 102.97 189.454 104.902 189.499C106.835 189.544 108.438 188.014 108.483 186.081L101.485 185.919ZM103.373 104.625L101.485 185.919L108.483 186.081L110.371 104.788L103.373 104.625Z" fill="#787878"/>
<circle cx="106.711" cy="101.187" r="6.39203" fill="#858585"/>
<path d="M188.215 63.3546L181.179 54.4973L187.087 49.418L191.025 54.4973L194.358 58.9611L188.215 63.3546Z" fill="white" stroke="white"/>
<path d="M182.984 44.7612L176.151 50L165.804 38.9795L157.083 32.6084L147.923 25.7206L139.168 20.2986L129.342 16.0777L122.984 15.0318V6L129.342 7.81233L137.56 10.5674L146.801 15.0318L157.083 20.2986L165.804 26.9486L173.483 33.8479L182.984 44.7612Z" fill="url(#paint3_linear_136_778)"/>
</g>
<defs>
<filter id="filter0_i_136_778" x="0" y="-4" width="208.979" height="212.979" filterUnits="userSpaceOnUse" color-interpolation-filters="sRGB">
<feFlood flood-opacity="0" result="BackgroundImageFix"/>
<feBlend mode="normal" in="SourceGraphic" in2="BackgroundImageFix" result="shape"/>
<feColorMatrix in="SourceAlpha" type="matrix" values="0 0 0 0 0 0 0 0 0 0 0 0 0 0 0 0 0 0 127 0" result="hardAlpha"/>
<feOffset dy="-4"/>
<feGaussianBlur stdDeviation="2"/>
<feComposite in2="hardAlpha" operator="arithmetic" k2="-1" k3="1"/>
<feColorMatrix type="matrix" values="0 0 0 0 0 0 0 0 0 0 0 0 0 0 0 0 0 0 0.1 0"/>
<feBlend mode="normal" in2="shape" result="effect1_innerShadow_136_778"/>
</filter>
<linearGradient id="paint0_linear_136_778" x1="104.489" y1="0" x2="104.489" y2="208.979" gradientUnits="userSpaceOnUse">
<stop stop-color="#FFD700"/>
<stop offset="1" stop-color="#EFC325"/>
</linearGradient>
<linearGradient id="paint1_linear_136_778" x1="104.489" y1="0" x2="104.489" y2="208.979" gradientUnits="userSpaceOnUse">
<stop stop-color="#FFD700"/>
<stop offset="1" stop-color="#EFC325"/>
</linearGradient>
<linearGradient id="paint2_linear_136_778" x1="104.676" y1="20.3838" x2="104.676" y2="189.029" gradientUnits="userSpaceOnUse">
<stop stop-color="#EFCA00" stop-opacity="0.53"/>
<stop offset="1" stop-color="#D9B700" stop-opacity="0.54"/>
</linearGradient>
<linearGradient id="paint3_linear_136_778" x1="152.984" y1="6" x2="152.984" y2="50" gradientUnits="userSpaceOnUse">
<stop stop-color="white" stop-opacity="0"/>
<stop offset="0.490625" stop-color="white" stop-opacity="0.932458"/>
<stop offset="0.516667" stop-color="white" stop-opacity="0.971969"/>
<stop offset="0.579167" stop-color="white" stop-opacity="0.97295"/>
<stop offset="0.808333" stop-color="white" stop-opacity="0.97295"/>
<stop offset="1" stop-color="white"/>
</linearGradient>
</defs>
</svg>
