<svg width="current" height="current" viewBox="0 0 101 34" fill="none" xmlns="http://www.w3.org/2000/svg">
<rect x="22.0364" y="10.4531" width="5.22657" height="12.1482" rx="2.61329" fill="current"/>
<rect x="29.0994" y="10.4531" width="5.22657" height="12.1482" rx="2.61329" fill="current"/>
<rect x="36.1621" y="10.4531" width="5.22657" height="12.1482" rx="2.61329" fill="current"/>
<rect width="5.22657" height="22.6014" rx="2.61329" fill="current"/>
<rect x="58.905" y="10.4531" width="5.22657" height="22.6014" rx="2.61329" fill="current"/>
<rect x="95.7734" y="10.4531" width="5.22657" height="22.6014" rx="2.61329" fill="current"/>
<rect x="14.1965" y="10.4531" width="5.22657" height="12.1482" rx="2.61329" fill="current"/>
<path d="M2.61328 13.0664C1.17001 13.0664 0 11.8964 0 10.4531C0 9.00984 1.17001 7.83983 2.61329 7.83983L8.96993 7.83983C10.4132 7.83983 11.5832 9.00984 11.5832 10.4531C11.5832 11.8964 10.4132 13.0664 8.96993 13.0664H2.61328Z" fill="current"/>
<rect x="44.0022" y="15.6797" width="5.22657" height="12.2895" rx="2.61329" transform="rotate(-90 44.0022 15.6797)" fill="current"/>
<rect x="44.0022" y="22.6014" width="5.22657" height="12.2895" rx="2.61329" transform="rotate(-90 44.0022 22.6014)" fill="current"/>
<rect x="80.8706" y="10.4531" width="5.22657" height="13.4196" rx="2.61329" fill="current"/>
<rect x="88.7104" y="10.4531" width="5.22657" height="13.4196" rx="2.61329" fill="current"/>
<rect x="65.9678" y="10.4531" width="5.22657" height="13.4196" rx="2.61329" fill="current"/>
<rect x="73.8076" y="10.4531" width="5.22657" height="13.4196" rx="2.61329" fill="current"/>
<rect x="14.1965" y="3.2489" width="5.22657" height="5.22657" rx="2.61329" fill="current"/>
<path d="M68.7554 29.6362V30.1762H69.1454C69.9404 30.1762 70.5704 30.1562 71.2704 30.0462L71.2104 29.5162C70.5204 29.6262 69.9254 29.6362 69.1454 29.6362H68.7554ZM68.7554 26.9762V29.8112H69.4254V27.5162H70.9304V26.9762H68.7554ZM69.2654 28.2612V28.7812H70.8654V28.2612H69.2654ZM71.5354 26.5912V31.2212H72.2054V26.5912H71.5354ZM72.0554 28.3462V28.8962H72.8754V28.3462H72.0554ZM78.105 26.5962V29.2112H78.775V26.5962H78.105ZM75.695 29.4212V31.1712H78.775V29.4212H75.695ZM78.12 29.9412V30.6462H76.345V29.9412H78.12ZM76.255 26.8062C75.535 26.8062 74.995 27.2662 74.995 27.9162C74.995 28.5612 75.535 29.0262 76.255 29.0262C76.975 29.0262 77.51 28.5612 77.51 27.9162C77.51 27.2662 76.975 26.8062 76.255 26.8062ZM76.255 27.3562C76.605 27.3562 76.86 27.5612 76.86 27.9162C76.86 28.2662 76.605 28.4712 76.255 28.4712C75.905 28.4712 75.645 28.2662 75.645 27.9162C75.645 27.5612 75.905 27.3562 76.255 27.3562ZM84.6596 26.5912V31.2212H85.2946V26.5912H84.6596ZM83.3046 28.2762V28.8612H83.9246V28.2762H83.3046ZM83.7396 26.6812V31.0062H84.3646V26.6812H83.7396ZM81.3096 27.1112V27.6412H83.4146V27.1112H81.3096ZM81.2996 30.1712C81.8696 30.1712 82.8096 30.1562 83.5296 30.0012L83.4846 29.5212C82.7846 29.6162 81.8096 29.6312 81.2296 29.6312L81.2996 30.1712ZM81.5946 27.4512V29.7712H82.1896V27.4512H81.5946ZM82.5246 27.4512V29.7712H83.1246V27.4512H82.5246ZM90.7992 26.5862V31.2312H91.4692V26.5862H90.7992ZM88.9742 26.9112C88.2742 26.9112 87.7592 27.5512 87.7592 28.5612C87.7592 29.5812 88.2742 30.2212 88.9742 30.2212C89.6742 30.2212 90.1892 29.5812 90.1892 28.5612C90.1892 27.5512 89.6742 26.9112 88.9742 26.9112ZM88.9742 27.5162C89.3192 27.5162 89.5492 27.8812 89.5492 28.5612C89.5492 29.2512 89.3192 29.6212 88.9742 29.6212C88.6292 29.6212 88.3942 29.2512 88.3942 28.5612C88.3942 27.8812 88.6292 27.5162 88.9742 27.5162Z" fill="current"/>
</svg>
