<svg width="33.5" height="33.5" viewBox="0 0 33.5 33.5" fill="none" xmlns="http://www.w3.org/2000/svg">
<path d="M34.1 17.55C34.1 18.8637 33.0351 19.9286 31.7214 19.9286H22.8286C21.1717 19.9286 19.8286 21.2717 19.8286 22.9286V31.8215C19.8286 33.1351 18.7636 34.2 17.45 34.2C16.1363 34.2 15.0714 33.1351 15.0714 31.8215V22.9286C15.0714 21.2717 13.7283 19.9286 12.0714 19.9286H3.17856C1.86491 19.9286 0.799988 18.8637 0.799988 17.55C0.799988 16.2364 1.86491 15.1715 3.17856 15.1715H12.0714C13.7283 15.1715 15.0714 13.8283 15.0714 12.1715V3.2786C15.0714 1.96495 16.1363 0.900024 17.45 0.900024C18.7636 0.900024 19.8286 1.96495 19.8286 3.2786V12.1715C19.8286 13.8283 21.1717 15.1715 22.8286 15.1715H31.7214C33.0351 15.1715 34.1 16.2364 34.1 17.55Z" fill="#F1AF23"/>
</svg>
