<svg width="16" height="16" viewBox="0 0 16 16" fill="none" xmlns="http://www.w3.org/2000/svg">
<path d="M2.71644 0H13.2835V16H2.71644V0ZM12.2169 1.06667H3.78309V14.9333H12.2168L12.2169 1.06667ZM6.64177 3.78311H5.28355V2.71644H6.64177V3.78311ZM6.64177 6.49956H5.28355V5.43289H6.64177V6.49956ZM6.64177 9.20889H5.28355V8.14222H6.64177V9.20889ZM8.67555 3.78311H7.32445V2.71644H8.67555V3.78311ZM8.67555 6.49956H7.32445V5.43289H8.67555V6.49956ZM8.67555 9.20889H7.32445V8.14222H8.67555V9.20889ZM10.7164 3.78311H9.3582V2.71644H10.7164V3.78311ZM10.7164 6.49956H9.3582V5.43289H10.7164V6.49956ZM10.7164 9.20889H9.3582V8.14222H10.7164V9.20889ZM5.43289 11.5413H10.5742V16H5.43289V11.5413ZM9.50758 12.608H6.49953V14.9333H9.50753L9.50758 12.608ZM3.78311 16H0V9.03109L3.78312 7.13953L3.78311 16ZM1.06666 14.9333H2.71644V8.86328L1.06667 9.68817L1.06666 14.9333ZM16 16H12.2169V7.13672L16 9.02828V16ZM13.2836 14.9333H14.9333V9.68817L13.2836 8.86328V14.9333Z" fill="#787878"/>
</svg>
