<svg width="42" height="31" viewBox="0 0 42 31" fill="none" xmlns="http://www.w3.org/2000/svg">
<path class="big-font" d="M37.22 16.46V34.56H38.9V16.46H37.22ZM38.44 23.8V25.18H41.78V23.8H38.44ZM32.6 18.42V18.68C32.6 23.46 30.1 27.32 25.1 29.86L26.02 31.14C31.86 28.2 34.22 23.56 34.22 18.42H32.6ZM25.94 18.42V19.78H33.46V18.42H25.94Z" fill="#CDCDCD"/>
<path class="small-font" d="M21.152 0.535999V29.496H23.84V0.535999H21.152ZM23.104 12.28V14.488H28.448V12.28H23.104ZM13.76 3.672V4.088C13.76 11.736 9.76 17.912 1.76 21.976L3.232 24.024C12.576 19.32 16.352 11.896 16.352 3.672H13.76ZM3.104 3.672V5.848H15.136V3.672H3.104Z" fill="black"/>
</svg>
