<svg width="53" height="41" viewBox="0 0 53 41" fill="none" xmlns="http://www.w3.org/2000/svg">
<path d="M37.22 16.46H38.9V34.56H37.22V16.46ZM38.44 23.8H41.78V25.18H38.44V23.8ZM32.6 18.42H34.22C34.22 23.56 31.86 28.2 26.02 31.14L25.1 29.86C30.1 27.32 32.6 23.46 32.6 18.68V18.42ZM25.94 18.42H33.46V19.78H25.94V18.42Z" fill="#CDCDCD"/>
<path d="M21.152 0.535999H23.84V29.496H21.152V0.535999ZM23.104 12.28H28.448V14.488H23.104V12.28ZM13.76 3.672H16.352C16.352 11.896 12.576 19.32 3.232 24.024L1.76 21.976C9.76 17.912 13.76 11.736 13.76 4.088V3.672ZM3.104 3.672H15.136V5.848H3.104V3.672Z" fill="#787878"/>
</svg>