<svg width="172" height="58" viewBox="0 0 172 58" fill="none" xmlns="http://www.w3.org/2000/svg">
<rect x="37.4653" y="18.165" width="8.51485" height="21.571" rx="4.25743" fill="white"/>
<rect x="49.3861" y="18.165" width="9.08251" height="21.571" rx="4.54125" fill="white"/>
<rect x="61.3069" y="18.165" width="9.08251" height="21.571" rx="4.54125" fill="white"/>
<rect width="9.08251" height="39.736" rx="4.54125" fill="white"/>
<rect x="100.475" y="18.165" width="8.51485" height="39.1683" rx="4.25743" fill="white"/>
<rect x="162.917" y="18.165" width="9.08251" height="39.1683" rx="4.54125" fill="white"/>
<rect x="23.8416" y="18.165" width="9.65016" height="21.571" rx="4.82508" fill="white"/>
<path d="M4.54126 22.7063C2.03319 22.7063 0 20.6731 0 18.165V18.165C0 15.657 2.03319 13.6238 4.54125 13.6238L15.3267 13.6238C17.8348 13.6238 19.868 15.657 19.868 18.165V18.165C19.868 20.6731 17.8348 22.7063 15.3267 22.7063H4.54126Z" fill="white"/>
<rect x="75.4984" y="27.2476" width="9.08251" height="20.4356" rx="4.54125" transform="rotate(-90 75.4984 27.2476)" fill="white"/>
<rect x="75.4984" y="39.7361" width="9.65016" height="20.4356" rx="4.82508" transform="rotate(-90 75.4984 39.7361)" fill="white"/>
<rect x="137.941" y="18.165" width="8.51485" height="23.8416" rx="4.25743" fill="white"/>
<rect x="150.997" y="18.165" width="9.08251" height="23.8416" rx="4.54125" fill="white"/>
<rect x="111.828" y="18.165" width="9.65016" height="23.8416" rx="4.82508" fill="white"/>
<rect x="126.02" y="18.165" width="8.51485" height="23.8416" rx="4.25743" fill="white"/>
<rect x="23.8416" y="6.24414" width="9.65016" height="8.51485" rx="4.25743" fill="white"/>
</svg>
